<?xml version="1.0" encoding="UTF-8"?>
<svg xmlns="http://www.w3.org/2000/svg">
    <symbol id="ico-account" viewBox="0 0 24 24">  
      <path d="M12 2C6.48 2 2 6.48 2 12s4.48 10 10 10 10-4.48 10-10S17.52 2 12 2zm0 3c1.66 0 3 1.34 3 3s-1.34 3-3 3-3-1.34-3-3 1.34-3 3-3zm0 14.2c-2.5 0-4.71-1.28-6-3.22.03-1.99 4-3.08 6-3.08 1.99 0 5.97 1.09 6 3.08-1.29 1.94-3.5 3.22-6 3.22z"/>
      <path d="M0 0h24v24H0z" fill="none"/>
    </symbol>
    <symbol id="ico-add" viewBox="0 0 24 24">      
      <path d="M19 13h-6v6h-2v-6H5v-2h6V5h2v6h6v2z"/>
      <path d="M0 0h24v24H0z" fill="none"/>
    </symbol>
    <symbol id="ico-carretDown" viewBox="0 0 24 24">
      <path d="M7.41 7.84L12 12.42l4.59-4.58L18 9.25l-6 6-6-6z"/>
      <path d="M0-.75h24v24H0z" fill="none"/>
    </symbol>
    <symbol id="ico-bell" viewBox="0 0 41.57 47.69">      
      <path d="M44.51 36.42a5.76 5.76 0 0 0-1.64-2.48 13.21 13.21 0 0 1-3.66-7.48 45.05 45.05 0 0 1-.53-7.46 12.71 12.71 0 0 0-.82-4.14A14.72 14.72 0 0 0 33 8.07a13.56 13.56 0 0 0-6.12-2.81c-.35-.06-.55-.08-.33-.57A2.94 2.94 0 0 0 24.63.56a1.25 1.25 0 0 0-1.5 0 2.86 2.86 0 0 0-1.92 4c.2.39.2.58-.29.65a13.24 13.24 0 0 0-6.22 2.9A14.47 14.47 0 0 0 10.22 14a12.93 12.93 0 0 0-1.16 5.17 40 40 0 0 1-.38 6.26 22.56 22.56 0 0 1-1 4.21 15.91 15.91 0 0 1-3.52 5.12 4.25 4.25 0 0 0 0 5.63A4.54 4.54 0 0 0 7.9 42h9.45c.24 0 .62-.12.58.32a3.74 3.74 0 0 0 .28 1.38 5.85 5.85 0 0 0 4.67 4.12 2.49 2.49 0 0 0 2 0 5.43 5.43 0 0 0 2.41-1 6 6 0 0 0 2.5-4.2c.07-.5.17-.65.67-.65h9.14a6.62 6.62 0 0 0 2.23-.34 4.59 4.59 0 0 0 2.68-5.21zM24.62 45c0 .44-.47.7-1 .64a3.65 3.65 0 0 1-3.32-2.82c-.24-.8-.19-.88.72-.88.37-.07.63 0 .76.54a2.12 2.12 0 0 0 2 1.68c.61.1.89.38.84.84z" transform="translate(-3.08 -.31)"/>
    </symbol>
    <symbol id="ico-cancel" viewBox="0 0 24 24">
      <path d="M12 2C6.47 2 2 6.47 2 12s4.47 10 10 10 10-4.47 10-10S17.53 2 12 2zm5 13.59L15.59 17 12 13.41 8.41 17 7 15.59 10.59 12 7 8.41 8.41 7 12 10.59 15.59 7 17 8.41 13.41 12 17 15.59z"/>
      <path d="M0 0h24v24H0z" fill="none"/>
    </symbol>
    <symbol id="ico-close" viewBox="0 0 24 24">      
      <path d="M19 6.41L17.59 5 12 10.59 6.41 5 5 6.41 10.59 12 5 17.59 6.41 19 12 13.41 17.59 19 19 17.59 13.41 12z"/>
      <path d="M0 0h24v24H0z" fill="none"/>
    </symbol>
    <symbol id="ico-calendar" viewBox="0 0 32 32">      
      <path d="M7.9 7.5c-.7 0-1.3-.5-1.3-1.2V1.5C6.6.8 7.2.3 7.8.3 8.5.3 9 .9 9 1.5v4.8c.1.7-.5 1.2-1.1 1.2z"/>
      <path d="M26.3 3.1v3.8c0 1.1-.9 2-2 2h-.4c-1.1 0-2-.9-2-2v-.3-3.5H10v3.8c0 1.1-.9 2-2 2h-.3c-1.1 0-2-.9-2-2V3.1H0V32h32V3.1h-5.7zM29 29H3V10.1h26V29z"/>
      <path d="M24.1 7.6c-.7 0-1.2-.6-1.2-1.2V1.5c0-.7.6-1.2 1.2-1.2.7 0 1.2.6 1.2 1.2v4.8c.1.7-.5 1.3-1.2 1.3zM9.8 18.3h3.1v3.1H9.8zM5.3 18.3h3.1v3.1H5.3zM14.4 18.3h3.1v3.1h-3.1zM18.9 18.3H22v3.1h-3.1zM23.5 18.3h3.1v3.1h-3.1zM23.5 13.5h3.1v3.1h-3.1zM18.9 13.5H22v3.1h-3.1zM14.4 13.5h3.1v3.1h-3.1zM9.8 13.5h3.1v3.1H9.8zM5.3 22.7h3.1v3.1H5.3zM9.8 22.7h3.1v3.1H9.8zM14.4 22.7h3.1v3.1h-3.1zM18.9 22.7H22v3.1h-3.1z"/>
    </symbol>
    <symbol id="ico-ratio" viewBox="0 0 24 24">      
      <path d="M19 12h-2v3h-3v2h5v-5zM7 9h3V7H5v5h2V9zm14-6H3c-1.1 0-2 .9-2 2v14c0 1.1.9 2 2 2h18c1.1 0 2-.9 2-2V5c0-1.1-.9-2-2-2zm0 16.01H3V4.99h18v14.02z"/>
      <path d="M0 0h24v24H0z" fill="none"/>
    </symbol>
    <symbol id="ico-ratioOpen" viewBox="0 0 24 24">
      <rect width="100%" height="100%" fill="none"/>
      <g>
        <path d="M21.5057 2.2857H2.077A2.1587 2.1587 0 0 0-.0816 4.4444v15.1112a2.1587 2.1587 0 0 0 2.1587 2.1587h19.4286a2.1587 2.1587 0 0 0 2.1587-2.1587V4.4444a2.1587 2.1587 0 0 0-2.1587-2.1587zm0 17.2699H2.077V4.4444h19.4286z"/>
        <path d="M6.2082 8.4939H3.7347v1.649H7.857V6.0204h-1.649V8.494zM15.6735 17.9184h1.6816v-2.5225h2.5225v-1.6816h-4.2041v4.204z"/>
      </g>
    </symbol>
    <symbol id="ico-error" viewBox="0 0 24 24">
      <path d="M0 0h24v24H0z" fill="none"/>
      <path d="M1 21h22L12 2 1 21zm12-3h-2v-2h2v2zm0-4h-2v-4h2v4z"/>
    </symbol>
    <symbol id="ico-warning" viewBox="0 0 24 24">
      <path d="M0 0h24v24H0z" fill="none"/>
      <path d="M1 21h22L12 2 1 21zm12-3h-2v-2h2v2zm0-4h-2v-4h2v4z"/>
    </symbol>
    <symbol id="ico-validate" viewBox="0 0 24 24">
    <path d="M0 0h24v24H0z" fill="none"/>
    <path d="M12 2C6.48 2 2 6.48 2 12s4.48 10 10 10 10-4.48 10-10S17.52 2 12 2zm-2 15l-5-5 1.41-1.41L10 14.17l7.59-7.59L19 8l-9 9z"/>
  </symbol>
  <symbol id="ico-previous" viewBox="0 0 24 24">
      <path d="M15.41 16.09l-4.58-4.59 4.58-4.59L14 5.5l-6 6 6 6z"/>
      <path d="M0-.5h24v24H0z" fill="none"/>
    </symbol>
    <symbol id="ico-next" viewBox="0 0 24 24">
      <path d="M8.59 16.34l4.58-4.59-4.58-4.59L10 5.75l6 6-6 6z"/>
      <path d="M0-.25h24v24H0z" fill="none"/>
    </symbol>
    <symbol id="ico-tooltip" viewBox="0 0 85 85">
      <path d="M42.5 0C19 0 0 19 0 42.5S19 85 42.5 85 85 66 85 42.5 66 0 42.5 0zm-.2 66.3s-2 1.3-3.3 1.3c-.1.1-.2.1-.2.1v-.1c-.3 0-.6-.1-.9-.1l-.4-.1c-2.4-.6-3.6-2.9-3-5.3l3.3-13.2 1.5-6c1.4-5.5-4.4 1.2-5.5-1.4-.8-1.7 4.5-5.2 8.3-7.9 0 0 2-1.3 3.3-1.3.1-.1.2-.1.2-.1v.1c.3 0 .6.1.9.1l.4.1c2.4.6 3.8 3 3.2 5.3L46.8 51l-1.5 6c-1.4 5.5 4.3-1.2 5.4 1.4.8 1.7-4.6 5.2-8.4 7.9zM50.6 25c-.8 3.3-4.2 5.3-7.4 4.5-3.3-.8-5.3-4.2-4.5-7.4s4.2-5.3 7.4-4.5c3.3.7 5.3 4.1 4.5 7.4z" />
    </symbol>
    <symbol id="ico-arrowUpward" viewBox="0 0 24 24">
      <path d="M0 0h24v24H0V0z" fill="none"/>
      <path d="M4 12l1.41 1.41L11 7.83V20h2V7.83l5.58 5.59L20 12l-8-8-8 8z"/>
    </symbol>
    <symbol id="ico-arrowDownward" viewBox="0 0 24 24">
      <path d="M0 0h24v24H0V0z" fill="none"/>
      <path d="M20 12l-1.41-1.41L13 16.17V4h-2v12.17l-5.58-5.59L4 12l8 8 8-8z" fill="#010101"/>
    </symbol>
    <symbol id="ico-list" viewBox="0 0 24 24">
      <path d="M0 0h24v24H0z" fill="none"/>
      <path d="M12 8c1.1 0 2-.9 2-2s-.9-2-2-2-2 .9-2 2 .9 2 2 2zm0 2c-1.1 0-2 .9-2 2s.9 2 2 2 2-.9 2-2-.9-2-2-2zm0 6c-1.1 0-2 .9-2 2s.9 2 2 2 2-.9 2-2-.9-2-2-2z"/>
    </symbol>
    <symbol id="ico-sort" viewBox="0 0 512 512">
      <path d="M187.298 395.314l-79.984 80.002c-6.248 6.247-16.383 6.245-22.627 0L4.705 395.314C-5.365 385.244 1.807 368 16.019 368H64V48c0-8.837 7.163-16 16-16h32c8.837 0 16 7.163 16 16v320h47.984c14.241 0 21.363 17.264 11.314 27.314zM240 96h256c8.837 0 16-7.163 16-16V48c0-8.837-7.163-16-16-16H240c-8.837 0-16 7.163-16 16v32c0 8.837 7.163 16 16 16zm-16 112v-32c0-8.837 7.163-16 16-16h192c8.837 0 16 7.163 16 16v32c0 8.837-7.163 16-16 16H240c-8.837 0-16-7.163-16-16zm0 256v-32c0-8.837 7.163-16 16-16h64c8.837 0 16 7.163 16 16v32c0 8.837-7.163 16-16 16h-64c-8.837 0-16-7.163-16-16zm0-128v-32c0-8.837 7.163-16 16-16h128c8.837 0 16 7.163 16 16v32c0 8.837-7.163 16-16 16H240c-8.837 0-16-7.163-16-16z"/>
    </symbol>
    <symbol id="ico-cog" viewBox="0 0 512 512">
      <path d="M444.788 291.1l42.616 24.599c4.867 2.809 7.126 8.618 5.459 13.985-11.07 35.642-29.97 67.842-54.689 94.586a12.016 12.016 0 0 1-14.832 2.254l-42.584-24.595a191.577 191.577 0 0 1-60.759 35.13v49.182a12.01 12.01 0 0 1-9.377 11.718c-34.956 7.85-72.499 8.256-109.219.007-5.49-1.233-9.403-6.096-9.403-11.723v-49.184a191.555 191.555 0 0 1-60.759-35.13l-42.584 24.595a12.016 12.016 0 0 1-14.832-2.254c-24.718-26.744-43.619-58.944-54.689-94.586-1.667-5.366.592-11.175 5.459-13.985L67.212 291.1a193.48 193.48 0 0 1 0-70.199l-42.616-24.599c-4.867-2.809-7.126-8.618-5.459-13.985 11.07-35.642 29.97-67.842 54.689-94.586a12.016 12.016 0 0 1 14.832-2.254l42.584 24.595a191.577 191.577 0 0 1 60.759-35.13V25.759a12.01 12.01 0 0 1 9.377-11.718c34.956-7.85 72.499-8.256 109.219-.007 5.49 1.233 9.403 6.096 9.403 11.723v49.184a191.555 191.555 0 0 1 60.759 35.13l42.584-24.595a12.016 12.016 0 0 1 14.832 2.254c24.718 26.744 43.619 58.944 54.689 94.586 1.667 5.366-.592 11.175-5.459 13.985L444.788 220.9a193.485 193.485 0 0 1 0 70.2zM336 256c0-44.112-35.888-80-80-80s-80 35.888-80 80 35.888 80 80 80 80-35.888 80-80z"/>
    </symbol>
    <symbol id="ico-edit" viewBox="0 0 24 24">
      <path d="M3 17.25V21h3.75L17.81 9.94l-3.75-3.75L3 17.25zM20.71 7.04c.39-.39.39-1.02 0-1.41l-2.34-2.34c-.39-.39-1.02-.39-1.41 0l-1.83 1.83 3.75 3.75 1.83-1.83z"/>
      <path d="M0 0h24v24H0z" fill="none"/>
    </symbol>
    <symbol id="ico-delete" viewBox="0 0 24 24">
      <path d="M6 19c0 1.1.9 2 2 2h8c1.1 0 2-.9 2-2V7H6v12zM19 4h-3.5l-1-1h-5l-1 1H5v2h14V4z"/>
      <path d="M0 0h24v24H0z" fill="none"/>
    </symbol>
    <symbol id="ico-quickEdit" viewBox="0 0 24 24">
      <path d="M17.8 8L14 4.3l-10 10V18h3.8l10-10zm2.9-3c.4-.4.4-1 0-1.4l-2.3-2.3c-.4-.4-1-.4-1.4 0l-2 2L18.8 7l1.9-2zM4 21h17v1.7H4V21z"/>
    </symbol>
    <symbol id="ico-registerEdit" viewBox="0 0 24 24">
      <path d="M0 0h24v24H0z" fill="none"/>
      <path d="M9 16.2L4.8 12l-1.4 1.4L9 19 21 7l-1.4-1.4L9 16.2z"/>
    </symbol>
    <symbol id="ico-cancelEdit" viewBox="0 0 24 24">
      <path d="M19 6.41L17.59 5 12 10.59 6.41 5 5 6.41 10.59 12 5 17.59 6.41 19 12 13.41 17.59 19 19 17.59 13.41 12z"/>
      <path d="M0 0h24v24H0z" fill="none"/>
    </symbol>
    <symbol id="ico-csv" viewBox="0 0 24 24">
      <path fill="#08743B" d="M24 22.9H0V0h24v22.9"/>
      <path class="st0" d="M16.6 17.4h-4.1l-2.7-3.9-2.9 3.9h-4l5-6.3-4-5.5h4l1.9 3 2-3H16l-4.2 5.5 4.8 6.3"/>
      <g>
        <path class="st1" d="M21.3 13.5l.1.2c-.3 1.1-.7 2.3-1.4 3.7h-1.7c.3-1.4.6-2.7.8-3.9h2.2zm-2.6-5.7c0-.4.1-.8.4-1 .2-.2.6-.3 1-.3s.8.1 1 .3c.2.2.4.6.4 1s-.1.7-.4 1c-.2.2-.6.3-1 .3s-.8-.1-1-.3c-.3-.2-.4-.6-.4-1z"/>
      </g>
    </symbol>
    <symbol id="ico-pdf" viewBox="0 0 30 30">
      <path clip-rule="evenodd" fill="#EA4C3A" fill-rule="evenodd" d="M30.018 28.667H0V0h30.018v28.667"/>
      <path d="M15.372 4.377c.452.213.358.489.219 1.793-.142 1.345-.618 3.802-1.535 6.219-.918 2.413-2.28 4.784-3.467 6.539-1.186 1.756-2.201 2.897-2.975 3.556-.777.659-1.314.835-1.665.893-.348.058-.506 0-.6-.177-.094-.176-.127-.466-.046-.82.079-.35.268-.76.804-1.285.541-.527 1.426-1.172 2.661-1.771 1.235-.6 2.817-1.156 4.116-1.537 1.299-.379 2.311-.585 3.197-.746.888-.162 1.647-.277 2.391-.337.744-.056 1.474-.056 2.186 0 .712.06 1.408.175 2.011.323.6.146 1.108.321 1.551.601.442.276.823.657 1.012 1.083.192.423.192.893.033 1.228-.158.337-.476.541-.839.66-.364.115-.775.144-1.267 0-.49-.148-1.062-.47-1.662-.894-.601-.425-1.235-.952-2.057-1.771-.824-.819-1.838-1.93-2.692-3.013-.854-1.083-1.553-2.136-2.028-3.029-.473-.893-.727-1.624-.933-2.355-.206-.733-.364-1.464-.427-2.122s-.034-1.245.03-1.714c.063-.466.16-.82.317-1.055.158-.23.381-.35.539-.408s.254-.058.348-.073c.094-.015.188-.044.333 0 .138.042.321.154.504.268" fill="none" stroke="#FFF" stroke-linejoin="round" stroke-miterlimit="10" stroke-width="1.4"/>
    </symbol>
    <symbol id="ico-odt" fill="#000" viewBox="0 0 548.291 548.291">
      <path d="M282.413 254.859c-7.564 0-12.464.672-15.357 1.333v98.144c2.893.671 7.567.671 11.793.671 30.714.221 50.741-16.693 50.741-52.525.221-31.158-18.022-47.623-47.177-47.623z"/>
      <path d="M486.201 196.124h-13.166V132.59c0-.396-.062-.795-.115-1.196-.021-2.523-.825-5-2.552-6.963L364.657 3.677c-.033-.031-.064-.042-.085-.073-.63-.707-1.364-1.292-2.143-1.795-.229-.157-.461-.286-.702-.421-.672-.366-1.387-.671-2.121-.892-.2-.055-.379-.136-.577-.188-.799-.19-1.628-.308-2.467-.308H96.757C84.894 0 75.256 9.651 75.256 21.502v174.613H62.092c-16.971 0-30.732 13.756-30.732 30.733V386.66c0 16.968 13.761 30.731 30.732 30.731h13.164V526.79c0 11.854 9.638 21.501 21.501 21.501h354.776c11.853 0 21.501-9.647 21.501-21.501V417.392H486.2c16.966 0 30.729-13.764 30.729-30.731V226.854c.001-16.982-13.762-30.73-30.728-30.73zM96.757 21.502h249.054v110.009c0 5.939 4.817 10.75 10.751 10.75h94.972v53.861H96.757V21.502zM365.643 301.37c0 28.72-10.457 48.524-24.925 60.75-15.795 13.141-39.832 19.376-69.216 19.376-17.578 0-30.045-1.112-38.504-2.236V231.932c12.459-2.005 28.714-3.118 45.846-3.118 28.482 0 46.955 5.123 61.433 16.032 15.576 11.572 25.366 30.034 25.366 56.524zm-299.139 4.672c0-44.961 28.714-78.571 73.004-78.571 46.076 0 71.224 34.512 71.224 75.904 0 49.187-29.827 79.004-73.665 79.004-44.517-.001-70.563-33.597-70.563-76.337zm385.03 214.92H96.757v-103.57h354.776v103.57zm34.09-262.549h-40.945v121.529H410.63V258.413h-40.284v-28.486h115.277v28.486z"/>
      <path d="M174.895 304.487c0-26.929-12.905-50.074-36.279-50.074-22.921 0-36.279 21.832-36.279 50.967 0 29.376 13.798 50.069 36.5 50.069 22.926 0 36.058-21.818 36.058-50.962z"/>
    </symbol>
    <symbol id="ico-ods" fill="#000" viewBox="0 0 1000 1000">
      <path d="M879 360.5h-23.5V247c0-.7-.1-1.4-.2-2.1 0-4.5-1.5-8.9-4.6-12.4L661.8 16.6c-.1-.1-.1-.1-.2-.1-1.1-1.3-2.4-2.3-3.8-3.2-.4-.3-.8-.5-1.3-.8-1.2-.7-2.5-1.2-3.8-1.6-.4-.1-.7-.2-1-.3-1.4-.3-2.9-.5-4.4-.5H182.9c-21.2 0-38.4 17.2-38.4 38.4v312.1H121c-30.3 0-54.9 24.6-54.9 54.9v285.6c0 30.3 24.6 54.9 54.9 54.9h23.5v195.5c0 21.2 17.2 38.4 38.4 38.4H817c21.2 0 38.4-17.2 38.4-38.4V756H879c30.3 0 54.9-24.6 54.9-54.9V415.5c0-30.4-24.6-55-54.9-55zM182.9 48.4H628V245c0 10.6 8.6 19.2 19.2 19.2H817v96.3H182.9V48.4zm465.4 490.9c0 49.4-18 83.5-42.9 104.6-27.2 22.6-68.6 33.3-119.2 33.3-30.3 0-51.7-1.9-66.3-3.8V419.7c21.5-3.4 49.4-5.4 79-5.4 49.1 0 80.9 8.8 105.8 27.6 26.8 20 43.6 51.8 43.6 97.4zm-515.1 8c0-77.4 49.4-135.3 125.7-135.3 79.3 0 122.6 59.4 122.6 130.7 0 84.7-51.4 136.1-126.9 136.1-76.6 0-121.4-57.9-121.4-131.5zm683.9 393.9H182.9V756H817l.1 185.2zM750 678.5c-29.5 0-58.6-7.7-73.2-15.8l11.9-48.3c15.7 8.1 39.9 16.1 64.8 16.1 26.8 0 41-11.1 41-28 0-16.1-12.3-25.3-43.3-36.4-42.9-14.9-70.9-38.7-70.9-76.3 0-44.1 36.8-77.8 97.7-77.8 29.1 0 50.6 6.1 65.9 13l-13 47.1c-10.4-5-28.7-12.3-54.1-12.3-25.3 0-37.6 11.5-37.6 24.9 0 16.5 14.6 23.7 47.9 36.4 45.6 16.9 67.1 40.6 67.1 77.1 0 43.4-33.3 80.3-104.2 80.3z"/>
      <path d="M505 459.2c-13 0-21.5 1.1-26.5 2.3v169c5 1.2 13 1.2 20.3 1.2 52.9.4 87.4-28.7 87.4-90.5.4-53.6-31-82-81.2-82zM319.8 544.7c0-46.4-22.2-86.3-62.5-86.3-39.5 0-62.5 37.6-62.5 87.8 0 50.6 23.8 86.2 62.9 86.2 39.5 0 62.1-37.5 62.1-87.7z"/>
    </symbol>
    <symbol id="ico-consult" viewBox="0 0 24 24">
      <path d="M15.5 14h-.79l-.28-.27C15.41 12.59 16 11.11 16 9.5 16 5.91 13.09 3 9.5 3S3 5.91 3 9.5 5.91 16 9.5 16c1.61 0 3.09-.59 4.23-1.57l.27.28v.79l5 4.99L20.49 19l-4.99-5zm-6 0C7.01 14 5 11.99 5 9.5S7.01 5 9.5 5 14 7.01 14 9.5 11.99 14 9.5 14z"/>
      <path d="M0 0h24v24H0z" fill="none"/>
    </symbol>
    <symbol id="ico-user" viewBox="0 0 24 24">
      <circle r="4" cy="9" cx="11.6316"/>
      <path d="M11.6316 15c-2.67 0-8 1.34-8 4v2h16v-2c0-2.66-5.33-4-8-4zm7.76-9.64"/>
      <path fill="none" d="M2.6316-.329h24v24h-24v-24z"/>
    </symbol>
    <symbol id="ico-info" viewBox="0 0 24 24">
      <path d="M0 0h24v24H0z" fill="none"/>
      <path d="M12 2C6.48 2 2 6.48 2 12s4.48 10 10 10 10-4.48 10-10S17.52 2 12 2zm1 15h-2v-6h2v6zm0-8h-2V7h2v2z"/>
    </symbol>
    <symbol id="ico-first" viewBox="0 0 24 24">
      <path d="M0 0h24v24H0z" fill="none"/>
      <path d="M18.41 16.59L13.82 12l4.59-4.59L17 6l-6 6 6 6zM6 6h2v12H6z"/>
    </symbol>
    <symbol id="ico-last" viewBox="0 0 24 24">
      <path d="M0 0h24v24H0z" fill="none"/>
      <path d="M5.59 7.41L10.18 12l-4.59 4.59L7 18l6-6-6-6zM16 6h2v12h-2z"/>
    </symbol>
    <symbol id="ico-bottom" viewBox="0 0 24 24">
      <path d="M7 14l5-5 5 5H7z"/>
      <path d="M0 0h24v24H0V0z" fill="none"/>
    </symbol>
    <symbol id="ico-top" viewBox="0 0 24 24">
      <path d="M7 10l5 5 5-5H7z"/>
      <path d="M0 0h24v24H0V0z" fill="none"/>
    </symbol>
</svg>